<?xml version="1.0" standalone="no"?>
<!DOCTYPE svg PUBLIC "-//W3C//DTD SVG 20010904//EN"
 "http://www.w3.org/TR/2001/REC-SVG-20010904/DTD/svg10.dtd">
<svg version="1.0" xmlns="http://www.w3.org/2000/svg"
 width="1496.000000pt" height="1432.000000pt" viewBox="0 0 1496.000000 1432.000000"
 preserveAspectRatio="xMidYMid meet">

<g transform="translate(0.000000,1432.000000) scale(0.100000,-0.100000)"
fill="#000000" stroke="none">
<path d="M5836 14265 c-10 -16 -12 -25 -5 -25 6 0 -2 -15 -18 -34 -30 -33
-112 -193 -152 -297 -25 -65 -36 -154 -36 -299 0 -148 12 -268 28 -294 8 -12
18 -37 22 -56 4 -19 16 -46 26 -59 11 -13 17 -32 14 -41 -3 -10 5 -28 20 -44
15 -17 25 -37 23 -50 -3 -18 -9 -20 -38 -18 -19 2 -43 10 -54 18 -11 8 -33 14
-49 14 -31 0 -204 83 -276 133 -26 17 -112 98 -193 179 l-147 148 -6 -44 c-4
-25 -13 -47 -21 -50 -11 -4 -14 -31 -14 -120 0 -63 4 -117 9 -120 5 -3 14 -36
21 -73 7 -38 21 -87 31 -110 11 -23 19 -50 19 -60 0 -10 9 -29 20 -43 11 -14
20 -34 20 -44 0 -11 7 -27 15 -36 9 -10 18 -28 20 -40 2 -13 14 -33 25 -45 12
-12 20 -26 19 -31 -4 -21 2 -34 22 -53 43 -40 25 -51 -151 -98 -91 -24 -183
-48 -205 -53 -70 -16 -337 -107 -470 -160 -256 -103 -598 -286 -719 -385 -25
-20 -53 -38 -63 -40 -10 -1 -17 -8 -15 -15 1 -6 -1 -9 -6 -6 -5 3 -24 -11 -43
-31 -19 -21 -26 -31 -16 -24 38 30 12 -4 -73 -95 -49 -53 -90 -101 -90 -107 0
-7 -36 -52 -80 -102 -44 -49 -80 -95 -80 -102 0 -6 -24 -40 -52 -75 -29 -35
-52 -64 -50 -66 1 -1 -2 -8 -8 -15 -29 -34 -87 -115 -100 -140 -8 -15 -49 -87
-92 -160 -72 -126 -101 -182 -163 -324 -15 -35 -34 -63 -41 -63 -8 0 -14 4
-14 8 0 4 -28 25 -62 45 -35 21 -70 42 -78 47 -95 59 -270 114 -470 149 -112
20 -152 22 -375 18 -344 -5 -437 -23 -655 -130 -95 -47 -116 -63 -216 -162
-103 -103 -114 -119 -167 -225 -32 -67 -67 -159 -84 -220 -26 -101 -28 -115
-28 -340 0 -220 1 -239 23 -300 13 -36 36 -105 52 -155 15 -49 34 -106 41
-125 43 -122 53 -149 69 -185 9 -22 32 -77 50 -123 18 -45 36 -85 41 -88 5 -3
9 -15 9 -28 0 -12 4 -26 9 -31 6 -6 35 -59 65 -120 57 -113 72 -141 126 -235
22 -38 78 -125 155 -241 27 -40 96 -123 153 -184 113 -119 311 -305 325 -305
5 0 36 -18 69 -40 33 -22 64 -40 69 -40 4 0 19 -11 33 -25 14 -14 33 -25 44
-25 10 0 22 -4 27 -9 14 -14 122 -52 179 -63 28 -5 59 -16 70 -24 11 -8 40
-14 64 -14 l43 0 45 -97 c25 -54 63 -133 85 -176 21 -43 39 -82 39 -87 0 -4
17 -46 39 -92 21 -45 42 -94 46 -108 4 -14 14 -34 21 -45 8 -11 14 -26 14 -35
0 -9 9 -33 20 -55 11 -22 20 -46 20 -55 0 -9 7 -26 16 -39 9 -13 20 -37 25
-55 4 -17 20 -62 34 -101 15 -38 32 -88 39 -110 6 -22 19 -60 28 -85 16 -45
39 -120 78 -260 11 -41 28 -97 37 -124 9 -26 17 -66 19 -88 2 -21 10 -59 19
-84 8 -24 18 -77 21 -117 3 -40 10 -77 15 -83 15 -18 32 -271 25 -371 -4 -61
-3 -94 5 -98 5 -4 8 -13 5 -21 -11 -29 11 -12 84 62 41 42 68 73 60 68 -8 -4
2 12 23 37 21 24 57 72 80 106 37 55 60 78 55 56 -1 -9 9 -40 23 -65 5 -10 14
-50 20 -90 6 -40 16 -82 22 -93 30 -58 28 -447 -3 -598 -27 -128 -35 -159 -62
-242 -31 -92 -115 -265 -130 -265 -4 0 -8 -7 -8 -15 0 -18 4 -18 28 -6 9 6 62
17 117 25 62 10 123 27 160 45 162 77 177 83 186 74 16 -16 7 -729 -8 -745 -7
-6 -13 -22 -13 -34 0 -12 -8 -41 -19 -65 -10 -24 -21 -65 -24 -90 l-6 -45 57
-35 c65 -39 157 -100 221 -147 24 -18 48 -32 54 -32 5 0 25 -13 44 -30 18 -17
39 -30 47 -30 7 0 30 -15 52 -34 21 -18 55 -41 74 -51 19 -9 42 -23 50 -30 8
-7 31 -22 50 -33 76 -43 147 -88 187 -119 23 -18 48 -33 55 -33 8 0 25 -12 39
-26 13 -15 43 -35 65 -45 23 -10 47 -26 55 -35 7 -8 40 -30 72 -47 91 -49 109
-59 156 -94 24 -18 49 -33 54 -33 6 0 20 -9 31 -19 21 -19 67 -46 141 -84 22
-11 51 -30 65 -43 14 -13 45 -33 70 -44 86 -41 105 -53 135 -81 17 -15 48 -35
69 -44 21 -9 45 -23 53 -31 8 -8 22 -14 32 -14 10 0 26 -9 37 -21 10 -11 54
-39 98 -60 44 -22 92 -51 108 -65 17 -13 34 -22 39 -18 15 9 101 -69 117 -106
8 -19 27 -51 43 -71 16 -20 29 -44 29 -53 0 -8 14 -31 30 -49 17 -19 30 -41
30 -49 0 -8 27 -46 60 -83 33 -37 60 -73 60 -79 0 -15 132 -146 146 -146 6 0
22 -10 35 -21 52 -46 90 -71 96 -65 4 3 17 -4 30 -16 14 -13 37 -22 56 -23 25
0 31 -4 29 -17 -2 -12 4 -18 18 -18 26 0 26 24 0 57 -18 23 -20 41 -20 184 0
87 4 160 9 163 29 18 119 -58 176 -149 10 -16 39 -55 64 -85 24 -30 52 -64 60
-74 14 -16 14 -18 1 -11 -8 4 7 -15 34 -43 27 -28 54 -48 59 -45 6 3 7 1 4 -4
-6 -10 22 -39 87 -88 15 -11 47 -37 72 -58 25 -20 60 -45 77 -53 18 -9 39 -23
48 -30 39 -35 192 -103 319 -142 192 -60 238 -66 520 -66 259 0 268 0 370 27
58 16 109 32 114 37 5 5 -11 14 -35 20 -70 18 -189 81 -246 129 -29 24 -53 40
-53 35 0 -15 -62 51 -104 112 -24 33 -55 87 -70 119 -23 52 -26 69 -26 177 l0
120 34 34 c19 19 44 34 57 34 12 0 43 9 68 21 25 11 66 30 91 40 25 11 52 24
60 29 36 20 279 140 320 158 83 35 536 295 880 505 91 55 183 111 205 124 22
14 67 42 100 64 33 21 73 46 89 55 26 15 160 100 281 179 28 18 84 54 125 80
266 170 438 282 565 370 28 19 64 42 80 51 17 9 48 31 70 49 22 17 52 35 68
39 31 7 36 33 13 69 -8 12 -17 41 -21 65 -4 23 -14 57 -23 75 -15 28 -17 81
-20 405 -4 423 -7 406 75 354 68 -44 174 -80 278 -97 49 -7 91 -18 93 -24 2
-6 16 -11 30 -10 15 0 21 3 15 6 -7 2 -13 12 -13 21 0 10 -24 67 -54 127 -70
145 -96 211 -101 260 -3 21 -14 67 -26 102 -19 59 -20 80 -17 336 4 243 7 282
27 362 29 112 53 177 69 183 7 2 12 -6 12 -21 0 -14 10 -38 23 -54 12 -15 28
-39 34 -53 14 -33 201 -230 218 -230 11 0 14 50 17 248 3 255 6 276 63 512 8
30 18 75 24 100 75 334 347 1056 551 1464 l35 69 60 13 c85 18 262 77 320 107
300 152 555 395 780 741 108 167 236 404 293 541 104 249 195 510 251 715 30
109 30 405 1 524 -38 150 -63 220 -109 311 -38 75 -64 108 -151 195 -91 92
-118 113 -205 157 -107 55 -209 90 -345 120 -122 26 -578 26 -725 -1 -119 -21
-275 -62 -289 -76 -6 -6 -18 -10 -28 -10 -24 0 -180 -81 -218 -114 -17 -14
-37 -23 -45 -20 -9 4 -15 0 -15 -10 0 -38 -34 -9 -46 39 -13 52 -110 251 -183
373 -98 165 -310 462 -428 597 -24 27 -43 55 -43 62 0 8 -52 67 -115 132 -109
112 -141 137 -356 278 -19 13 -42 23 -50 23 -9 0 -24 9 -34 20 -10 11 -22 20
-26 20 -5 0 -63 27 -128 59 -367 182 -863 340 -1346 430 -158 29 -358 59 -445
66 -41 3 -115 12 -165 20 -49 8 -169 17 -266 20 -97 3 -210 10 -250 15 -41 6
-112 14 -159 19 -213 22 -586 116 -755 190 -22 10 -70 31 -108 46 -37 15 -72
34 -78 42 -6 7 -18 13 -26 13 -7 0 -37 16 -66 35 -28 19 -57 35 -63 35 -6 0
-17 7 -24 15 -7 8 -34 26 -60 39 -27 13 -67 42 -90 65 -23 22 -47 38 -54 35
-16 -6 -328 312 -384 391 -119 169 -165 250 -271 478 -27 59 -52 107 -54 107
-3 0 -12 -11 -21 -25z m-244 -2656 c-1 -18 -9 -44 -17 -56 -30 -45 -20 -60 43
-67 123 -14 361 -89 547 -171 57 -25 380 -186 463 -230 21 -12 54 -33 73 -47
18 -14 50 -33 69 -42 61 -29 94 -48 123 -73 16 -12 34 -23 40 -23 7 0 39 -22
72 -50 33 -27 67 -50 75 -50 9 0 42 -26 74 -59 l58 -58 83 1 c62 1 87 5 101
18 11 9 45 68 78 132 53 103 67 123 151 203 252 239 565 436 859 539 132 46
261 64 454 64 225 0 362 -22 662 -106 293 -81 632 -214 1035 -404 61 -29 135
-63 165 -77 30 -13 62 -28 70 -33 8 -5 51 -28 95 -51 44 -23 91 -49 105 -59
14 -9 55 -31 91 -48 36 -18 75 -42 86 -54 25 -29 64 -110 74 -157 4 -20 13
-54 19 -76 28 -98 20 -839 -10 -869 -5 -5 -10 -32 -10 -60 0 -67 -19 -227 -29
-246 -5 -9 -12 -54 -16 -100 -4 -47 -13 -98 -20 -115 -8 -16 -19 -73 -26 -125
-6 -52 -16 -99 -20 -104 -15 -16 -11 -66 5 -66 8 0 18 5 22 11 11 18 115 61
132 54 12 -4 13 -8 4 -17 -7 -7 -12 -26 -12 -42 0 -30 -25 -130 -57 -226 -8
-25 -18 -58 -23 -75 -67 -256 -419 -1314 -490 -1475 -62 -142 -90 -200 -98
-200 -4 0 -20 -24 -36 -54 -48 -92 -329 -362 -527 -508 -101 -73 -430 -286
-484 -312 -16 -9 -49 -28 -73 -44 l-43 -29 83 -6 c138 -11 303 -62 431 -135
105 -59 287 -265 357 -402 46 -90 109 -295 116 -376 2 -31 12 -67 21 -81 15
-22 17 -61 16 -312 0 -247 -2 -292 -16 -321 -10 -18 -17 -47 -18 -64 -1 -17
-4 -42 -8 -55 -6 -22 -9 -20 -64 38 -31 34 -65 74 -74 89 -9 15 -38 52 -63 82
-189 225 -377 531 -387 630 -2 19 -12 56 -23 82 -11 26 -20 55 -19 65 0 13 4
9 13 -11 13 -28 13 -27 20 30 4 32 9 69 13 83 6 23 7 23 19 6 8 -11 14 -28 14
-39 0 -36 58 -124 106 -160 65 -50 101 -49 158 4 58 54 69 83 64 174 -3 65 -7
79 -34 113 -17 21 -42 40 -55 41 -13 2 -28 10 -32 18 -10 18 -68 18 -104 -1
-15 -8 -41 -17 -58 -20 -43 -9 -135 -104 -135 -140 0 -15 -8 -34 -17 -41 -16
-11 -18 -31 -18 -156 0 -120 3 -149 18 -171 9 -14 17 -35 17 -45 0 -11 9 -31
20 -45 11 -14 20 -32 20 -40 0 -9 11 -29 25 -45 14 -17 25 -36 25 -43 1 -8 27
-45 60 -83 33 -38 57 -72 55 -76 -2 -4 12 -24 32 -46 35 -37 123 -168 127
-189 6 -28 18 -55 26 -55 4 0 11 -15 14 -32 3 -18 11 -40 16 -48 9 -13 11 -13
20 0 5 8 10 32 10 53 0 20 4 37 9 37 4 0 40 -32 80 -72 67 -68 71 -74 71 -118
0 -25 -8 -62 -19 -83 -10 -20 -22 -52 -25 -71 -4 -19 -13 -39 -21 -46 -8 -7
-15 -25 -15 -40 0 -15 -9 -35 -20 -45 -11 -10 -20 -26 -20 -35 0 -10 -9 -29
-20 -43 -11 -14 -20 -29 -20 -33 0 -14 -82 -147 -117 -190 -18 -23 -33 -46
-33 -51 0 -6 -20 -33 -45 -61 -25 -27 -45 -55 -45 -61 0 -7 -7 -14 -15 -17 -8
-4 -15 -13 -15 -21 0 -27 -380 -396 -530 -515 -177 -140 -400 -291 -545 -368
-33 -18 -71 -40 -85 -49 -92 -63 -546 -256 -660 -281 -19 -4 -60 -14 -90 -22
-235 -66 -565 -108 -855 -111 -260 -2 -636 51 -890 124 -100 29 -215 67 -250
83 -16 7 -61 26 -100 41 -38 15 -79 34 -90 41 -11 8 -28 14 -39 14 -11 0 -28
8 -38 17 -10 9 -27 17 -37 18 -10 0 -30 11 -46 23 -15 12 -35 22 -45 22 -9 0
-25 9 -35 20 -10 11 -25 20 -34 20 -9 0 -54 25 -101 56 -47 31 -94 60 -106 64
-56 22 -252 160 -351 249 -34 30 -68 56 -75 57 -34 5 -496 465 -523 520 -8 18
-34 54 -58 80 -69 79 -186 264 -247 394 -18 36 -38 77 -46 92 -8 14 -14 33
-14 41 0 7 -7 27 -15 44 -8 17 -19 52 -24 79 -9 47 -8 50 29 94 56 67 147 150
164 150 8 0 16 6 19 13 2 6 8 9 12 4 5 -4 0 -13 -11 -21 -13 -10 -18 -25 -18
-55 1 -27 -3 -41 -11 -41 -14 0 -19 -19 -31 -101 -3 -28 -2 -49 4 -53 6 -4 8
-22 5 -41 -5 -31 -3 -35 15 -35 19 0 21 5 19 48 -4 107 3 182 17 182 16 0 41
54 32 69 -4 5 3 15 14 21 11 6 23 23 26 38 4 15 15 38 26 51 10 13 18 30 18
37 0 8 16 34 35 60 19 25 35 50 35 56 0 5 16 28 35 51 19 22 35 44 35 49 0 4
19 37 43 72 106 161 120 196 137 336 15 123 -4 250 -47 312 -36 53 -109 108
-143 108 -14 0 -35 7 -46 15 -20 15 -80 20 -86 8 -1 -5 -20 -21 -41 -36 -63
-48 -90 -98 -91 -171 -1 -79 30 -133 98 -166 49 -23 103 -21 113 6 3 8 15 14
27 14 27 0 46 18 46 42 0 9 8 25 19 35 10 10 22 37 26 61 8 47 19 49 48 10 25
-34 28 -179 5 -224 -8 -16 -32 -65 -53 -109 -33 -72 -79 -148 -154 -258 -14
-20 -35 -52 -46 -70 -11 -18 -30 -44 -43 -58 -13 -13 -38 -44 -55 -67 -37 -51
-123 -152 -200 -237 l-55 -60 -17 40 c-29 69 -36 169 -33 464 4 305 7 324 66
526 25 84 70 190 126 295 14 25 60 83 103 130 43 46 77 87 76 91 -3 9 116 95
167 122 122 63 280 109 388 110 61 1 72 4 72 19 0 14 -22 28 -50 33 -3 0 -23
12 -45 26 -22 14 -51 32 -64 38 -13 7 -44 28 -68 47 -25 19 -50 34 -56 34 -6
0 -23 12 -38 26 -14 14 -34 26 -42 28 -9 1 -35 18 -58 37 -38 31 -60 46 -171
117 -20 13 -39 29 -42 37 -3 8 -19 20 -36 27 -38 16 -305 269 -386 366 -72 86
-134 203 -204 387 -17 44 -35 89 -40 100 -12 28 -57 146 -63 170 -3 11 -27 79
-52 150 -26 72 -53 150 -60 175 -7 25 -20 63 -28 85 -8 22 -25 74 -37 115 -22
69 -38 120 -70 210 -7 19 -17 53 -23 75 -5 22 -18 63 -28 90 -10 28 -27 84
-39 125 -31 108 -57 196 -80 269 -11 36 -20 76 -20 90 -1 14 -7 37 -15 51 -16
28 -19 60 -7 60 5 0 44 -33 87 -72 43 -40 82 -72 85 -71 4 1 58 -45 121 -102
62 -58 116 -105 120 -105 11 0 -17 86 -80 245 -18 44 -41 103 -51 130 -32 85
-136 405 -164 505 -15 52 -33 118 -41 146 -8 28 -15 62 -15 75 0 14 -9 50 -20
82 -11 31 -20 79 -20 106 0 28 -8 72 -17 98 -26 72 -26 447 0 553 41 165 85
247 161 299 62 43 519 281 538 281 3 0 63 27 132 60 70 33 130 60 134 60 4 0
21 7 37 16 76 40 446 184 580 226 183 57 357 102 495 129 98 19 262 39 285 34
6 -1 9 -17 7 -36z m-3556 -1381 c3 -4 7 -18 8 -30 1 -17 -13 -34 -54 -64 -90
-66 -205 -219 -223 -294 -3 -14 -8 -36 -12 -50 -6 -21 -4 -20 16 9 43 62 77
88 146 110 115 37 172 42 285 25 272 -39 378 -95 448 -234 21 -41 22 -53 16
-149 -3 -58 -11 -110 -16 -115 -6 -6 -10 -30 -10 -55 0 -88 -62 -285 -119
-376 -17 -28 -36 -61 -43 -75 -6 -14 -29 -46 -50 -72 -21 -26 -38 -49 -38 -52
0 -3 12 -6 28 -6 34 0 112 39 175 86 62 47 77 41 77 -30 0 -30 -5 -56 -11 -58
-7 -2 -14 -95 -20 -273 -5 -149 -14 -304 -19 -345 -5 -41 -14 -151 -21 -245
-6 -93 -15 -174 -19 -179 -11 -12 -81 14 -109 41 -13 13 -28 24 -32 24 -33 5
-73 26 -93 48 -11 11 -24 21 -30 21 -6 0 -38 23 -71 50 -33 28 -65 50 -72 50
-7 0 -48 33 -93 73 -45 39 -85 72 -91 72 -21 0 -272 251 -319 318 -122 175
-144 213 -205 352 -10 22 -21 65 -25 95 -9 62 -36 235 -51 325 -24 148 -29
212 -31 390 -2 170 0 197 20 258 31 96 61 143 149 230 78 78 134 112 207 127
48 10 291 8 302 -2z m10875 -18 c26 -14 64 -35 86 -47 50 -27 163 -147 163
-173 0 -10 7 -23 16 -28 9 -5 18 -26 21 -46 2 -21 10 -48 18 -60 25 -37 30
-246 10 -406 -9 -74 -20 -166 -25 -205 -4 -38 -13 -99 -20 -135 -6 -36 -15
-95 -19 -131 -11 -87 -44 -192 -92 -290 -59 -120 -97 -174 -200 -283 -52 -55
-99 -106 -106 -116 -26 -36 -259 -238 -353 -304 -225 -160 -366 -243 -396
-232 -6 2 -14 45 -17 99 -4 52 -11 105 -16 118 -6 13 -15 156 -20 318 -6 161
-15 299 -20 305 -10 12 -17 313 -8 322 3 3 38 -17 78 -45 74 -50 157 -85 186
-79 11 2 5 15 -25 53 -48 60 -132 195 -132 211 0 6 -6 17 -14 23 -7 6 -17 30
-20 54 -4 23 -14 53 -23 66 -8 13 -19 56 -24 95 -4 39 -15 85 -23 101 -12 23
-16 61 -16 156 0 111 2 128 19 143 31 28 213 85 339 106 108 18 121 19 211 4
53 -8 103 -22 112 -30 8 -8 24 -14 35 -14 10 0 41 -20 67 -45 49 -45 82 -53
52 -12 -8 12 -21 33 -27 47 -18 38 -65 99 -122 158 -28 28 -46 52 -42 52 5 0
1 9 -9 20 -10 11 -22 20 -28 20 -5 0 -36 21 -68 48 -32 26 -64 47 -70 47 -17
0 -33 30 -26 47 3 9 21 18 40 22 19 4 38 14 41 22 3 9 12 14 20 11 7 -3 26 1
42 9 51 27 97 33 229 30 116 -2 135 -5 176 -26z m-8521 -4505 c-13 -14 -28
-25 -33 -25 -6 0 0 11 13 25 13 14 28 25 33 25 6 0 0 -11 -13 -25z m1750
-4440 c13 -14 21 -25 18 -25 -2 0 -15 11 -28 25 -13 14 -21 25 -18 25 2 0 15
-11 28 -25z m781 -302 c13 -16 12 -17 -3 -4 -17 13 -22 21 -14 21 2 0 10 -8
17 -17z"/>
<path d="M5075 10683 c-64 -9 -111 -90 -80 -137 24 -36 85 -51 142 -35 49 13
63 32 63 81 0 24 -8 42 -27 60 -32 29 -55 37 -98 31z"/>
<path d="M9480 10660 c-6 -11 -11 -40 -12 -65 -3 -64 24 -89 94 -89 30 0 67 8
86 17 29 16 32 22 32 62 0 35 -5 49 -27 70 -24 22 -37 25 -95 25 -57 0 -69 -3
-78 -20z"/>
<path d="M5624 10452 c-40 -35 -49 -65 -34 -113 14 -42 45 -59 108 -59 66 0
125 89 92 140 -5 8 -10 11 -10 7 0 -5 -18 5 -39 22 -47 38 -76 39 -117 3z"/>
<path d="M8913 10450 c-47 -19 -58 -92 -20 -136 18 -20 34 -27 73 -31 43 -3
53 0 83 25 56 48 45 109 -26 139 -36 15 -77 16 -110 3z"/>
<path d="M4343 10443 c15 -2 37 -2 50 0 12 2 0 4 -28 4 -27 0 -38 -2 -22 -4z"/>
<path d="M10180 10430 c-13 -8 -12 -10 3 -10 9 0 17 5 17 10 0 12 -1 12 -20 0z"/>
<path d="M10405 10421 c6 -5 24 -13 40 -17 39 -9 30 0 -15 15 -19 6 -30 7 -25
2z"/>
<path d="M4178 10373 c6 -2 18 -2 25 0 6 3 1 5 -13 5 -14 0 -19 -2 -12 -5z"/>
<path d="M4070 10340 c-8 -5 -10 -10 -5 -10 6 0 17 5 25 10 8 5 11 10 5 10 -5
0 -17 -5 -25 -10z"/>
<path d="M10564 10341 c4 -6 2 -11 -5 -11 -28 0 8 -16 44 -19 4 -1 7 -8 7 -16
0 -8 8 -15 17 -15 13 0 12 5 -8 26 -26 28 -66 54 -55 35z"/>
<path d="M6147 10210 c-52 -58 -24 -124 65 -151 31 -10 41 -9 70 8 45 26 59
58 48 108 -12 52 -32 65 -100 65 -50 0 -60 -3 -83 -30z"/>
<path d="M8341 10204 c-27 -30 -31 -41 -25 -68 9 -42 8 -41 57 -65 59 -29 80
-27 122 14 32 30 36 38 30 67 -12 62 -36 83 -97 86 -52 3 -57 1 -87 -34z"/>
<path d="M10518 10213 c-17 -4 -24 -24 -18 -48 1 -5 3 -19 5 -30 1 -11 3 -24
4 -28 0 -5 5 -6 11 -2 5 3 6 13 3 23 -6 15 -5 15 10 3 15 -12 17 -11 17 13 0
15 7 29 15 32 11 5 12 11 4 25 -10 19 -18 21 -51 12z"/>
<path d="M9740 10190 c-9 -6 -10 -10 -3 -10 6 0 15 5 18 10 8 12 4 12 -15 0z"/>
<path d="M10577 10166 c-17 -13 -17 -14 1 -18 12 -4 18 1 19 13 2 22 3 22 -20
5z"/>
<path d="M4210 10149 c0 -5 5 -7 10 -4 6 3 10 8 10 11 0 2 -4 4 -10 4 -5 0
-10 -5 -10 -11z"/>
<path d="M5270 10060 c0 -5 5 -10 11 -10 5 0 7 5 4 10 -3 6 -8 10 -11 10 -2 0
-4 -4 -4 -10z"/>
<path d="M6855 10050 c3 -5 8 -10 11 -10 2 0 4 5 4 10 0 6 -5 10 -11 10 -5 0
-7 -4 -4 -10z"/>
<path d="M5245 10040 c3 -5 8 -10 11 -10 2 0 4 5 4 10 0 6 -5 10 -11 10 -5 0
-7 -4 -4 -10z"/>
<path d="M5300 10041 c0 -5 5 -13 10 -16 6 -3 10 -2 10 4 0 5 -4 13 -10 16 -5
3 -10 2 -10 -4z"/>
<path d="M6674 10035 c5 -11 9 -31 11 -45 5 -56 4 -54 22 -39 14 12 16 12 8 0
-6 -11 -4 -13 8 -8 9 3 19 2 22 -3 3 -4 -1 -10 -7 -12 -7 -3 2 -5 20 -5 25 0
29 3 18 9 -21 12 -20 28 1 28 14 0 13 3 -5 23 -11 12 -21 25 -21 30 0 4 -5 15
-10 25 -10 16 -10 16 -11 0 0 -10 -6 -18 -14 -18 -8 0 -23 8 -32 18 -17 16
-18 16 -10 -3z m72 -72 c-3 -3 -12 2 -20 10 -12 11 -13 16 -3 20 13 4 33 -21
23 -30z"/>
<path d="M6705 10040 c3 -5 8 -10 11 -10 2 0 4 5 4 10 0 6 -5 10 -11 10 -5 0
-7 -4 -4 -10z"/>
<path d="M7940 10039 c0 -5 5 -9 11 -9 5 0 7 -5 4 -10 -4 -6 -14 -10 -23 -8
-26 4 -27 -16 -2 -28 14 -8 18 -14 10 -19 -6 -4 -19 0 -29 9 -28 26 -37 18
-11 -9 14 -15 31 -23 40 -20 9 3 7 -1 -5 -11 -19 -15 -19 -16 13 -9 24 5 33 3
38 -9 5 -14 9 -13 32 1 15 9 28 18 30 19 2 1 5 13 8 28 3 17 0 26 -8 26 -9 0
-8 3 2 10 13 8 12 11 -5 24 -11 9 -24 16 -30 16 -5 1 -25 3 -42 4 -18 2 -33 0
-33 -5z m50 -59 c0 -4 -6 -10 -14 -13 -10 -4 -12 0 -9 14 5 18 23 18 23 -1z
m35 -30 c3 -5 1 -10 -4 -10 -6 0 -11 5 -11 10 0 6 2 10 4 10 3 0 8 -4 11 -10z"/>
<path d="M6772 10018 c3 -22 28 -39 28 -18 0 6 -5 8 -12 4 -8 -5 -9 0 -6 14 4
12 2 22 -4 22 -5 0 -8 -10 -6 -22z"/>
<path d="M6650 10011 c0 -6 5 -13 10 -16 6 -3 10 1 10 9 0 9 -4 16 -10 16 -5
0 -10 -4 -10 -9z"/>
<path d="M5325 10000 c3 -5 8 -10 11 -10 2 0 4 5 4 10 0 6 -5 10 -11 10 -5 0
-7 -4 -4 -10z"/>
<path d="M4591 9974 c-52 -43 -39 -104 31 -147 43 -27 80 -22 117 17 30 31 33
39 28 72 -9 57 -41 84 -98 84 -36 0 -55 -6 -78 -26z"/>
<path d="M9908 9973 c-53 -58 -43 -111 28 -142 64 -29 90 -27 126 9 28 28 30
35 26 82 -7 64 -24 78 -98 78 -49 0 -60 -4 -82 -27z"/>
<path d="M5393 9964 c0 -8 3 -12 5 -9 3 3 14 -2 24 -12 10 -9 18 -11 18 -6 0
6 -10 18 -23 26 -20 13 -24 13 -24 1z"/>
<path d="M9220 9948 c-16 -7 -20 -12 -12 -15 8 -3 21 2 30 11 19 18 17 19 -18
4z"/>
<path d="M5456 9931 c16 -17 165 -89 152 -73 -6 7 -41 28 -77 45 -83 40 -88
42 -75 28z"/>
<path d="M9135 9900 c-3 -6 1 -7 9 -4 18 7 21 14 7 14 -6 0 -13 -4 -16 -10z"/>
<path d="M9060 9860 c-13 -8 -13 -10 2 -10 9 0 20 5 23 10 8 13 -5 13 -25 0z"/>
<path d="M5656 9832 c-3 -5 1 -15 8 -21 11 -10 14 -9 12 3 -3 21 -13 29 -20
18z"/>
<path d="M9008 9823 c6 -2 18 -2 25 0 6 3 1 5 -13 5 -14 0 -19 -2 -12 -5z"/>
<path d="M7870 9769 c25 -25 59 -49 75 -53 28 -6 29 -5 11 9 -10 8 -23 12 -29
8 -6 -3 -7 -1 -3 5 9 14 -23 64 -36 56 -5 -3 -7 -13 -3 -23 4 -9 -8 -4 -27 14
-19 17 -13 9 12 -16z"/>
<path d="M5706 9800 c16 -16 127 -70 143 -70 9 0 -19 18 -63 40 -80 41 -97 47
-80 30z"/>
<path d="M8904 9781 c-23 -10 -45 -24 -48 -30 -11 -17 10 -13 24 4 7 8 18 14
24 13 17 -3 56 12 56 23 0 13 -9 11 -56 -10z"/>
<path d="M8820 9740 c0 -5 5 -10 10 -10 6 0 10 5 10 10 0 6 -4 10 -10 10 -5 0
-10 -4 -10 -10z"/>
<path d="M5876 9726 c3 -9 10 -17 15 -17 18 -3 25 -5 74 -24 28 -10 55 -22 61
-27 6 -4 33 -11 60 -14 46 -5 48 -4 30 10 -24 19 -36 20 -36 4 0 -10 -2 -10
-8 -1 -4 6 -45 23 -92 38 -47 15 -91 32 -98 38 -9 7 -11 6 -6 -7z"/>
<path d="M8726 9710 c-13 -4 -16 -9 -8 -14 7 -4 19 -3 28 2 21 12 5 22 -20 12z"/>
<path d="M6565 9670 c-8 -13 5 -13 25 0 13 8 13 10 -2 10 -9 0 -20 -4 -23 -10z"/>
<path d="M8608 9663 c6 -2 18 -2 25 0 6 3 1 5 -13 5 -14 0 -19 -2 -12 -5z"/>
<path d="M6443 9643 c9 -2 23 -2 30 0 6 3 -1 5 -18 5 -16 0 -22 -2 -12 -5z"/>
<path d="M8198 9643 c7 -3 16 -2 19 1 4 3 -2 6 -13 5 -11 0 -14 -3 -6 -6z"/>
<path d="M6218 9613 c7 -3 16 -2 19 1 4 3 -2 6 -13 5 -11 0 -14 -3 -6 -6z"/>
<path d="M7610 9538 c-12 -22 -12 -22 6 -6 10 10 15 20 12 24 -4 3 -12 -5 -18
-18z"/>
<path d="M7343 9470 c0 -25 2 -35 4 -22 2 12 2 32 0 45 -2 12 -4 2 -4 -23z"/>
<path d="M7565 9470 c-9 -16 -13 -30 -10 -30 4 0 -1 -7 -9 -16 -9 -8 -14 -19
-11 -24 3 -5 1 -11 -5 -15 -5 -3 -10 -14 -10 -24 0 -13 8 -18 25 -18 17 0 25
5 25 18 0 21 18 35 43 31 11 -2 17 3 18 15 0 10 2 28 3 40 2 18 0 20 -16 12
-24 -13 -40 -2 -33 22 10 29 -3 23 -20 -11z m45 -34 c0 -2 -8 -10 -17 -17 -16
-13 -17 -12 -4 4 13 16 21 21 21 13z m-50 -66 c0 -5 -2 -10 -4 -10 -3 0 -8 5
-11 10 -3 6 -1 10 4 10 6 0 11 -4 11 -10z"/>
<path d="M7291 9474 c0 -11 3 -14 6 -6 3 7 2 16 -1 19 -3 4 -6 -2 -5 -13z"/>
<path d="M7281 9434 c0 -11 3 -14 6 -6 3 7 2 16 -1 19 -3 4 -6 -2 -5 -13z"/>
<path d="M6930 9400 c-8 -26 -7 -41 2 -32 6 6 8 16 5 24 -3 7 -6 11 -7 8z"/>
<path d="M7847 9333 c-4 -3 -2 -12 3 -19 8 -9 3 -12 -24 -11 -19 0 -33 5 -30
9 3 4 1 8 -4 8 -15 0 -43 -36 -35 -44 5 -4 2 -6 -6 -4 -17 4 -120 -144 -104
-149 6 -2 9 -13 6 -23 -4 -15 0 -20 13 -20 14 0 16 3 6 9 -10 6 -10 10 3 21
14 11 16 11 13 -1 -2 -8 4 -13 15 -13 9 1 17 -3 17 -8 0 -6 7 -8 15 -4 12 4
13 2 2 -14 -6 -11 -15 -20 -18 -20 -4 0 -15 -12 -24 -27 -14 -22 -9 -19 23 12
28 27 40 46 36 57 -3 10 0 18 6 18 6 0 9 3 7 8 -2 4 8 18 21 32 14 14 21 19
17 11 -6 -10 -4 -12 4 -7 7 5 10 11 7 14 -4 3 6 18 21 34 15 15 23 28 19 28
-4 0 2 13 13 29 l21 29 -22 -6 c-23 -5 -23 -5 -5 16 23 26 7 59 -16 35z"/>
<path d="M6960 9323 c-8 -3 -19 -13 -24 -21 -7 -12 -10 -12 -17 -1 -7 11 -9
11 -9 -3 0 -28 13 -27 45 3 31 30 31 32 5 22z"/>
<path d="M7016 9302 c-3 -6 -1 -14 5 -17 15 -10 25 3 12 16 -7 7 -13 7 -17 1z"/>
<path d="M6946 9275 c-10 -14 -15 -29 -12 -33 3 -3 6 0 6 7 0 8 6 7 17 -4 13
-13 13 -19 4 -25 -10 -5 -5 -18 18 -50 17 -24 31 -36 31 -28 0 8 -7 23 -15 34
-19 26 -19 39 1 20 18 -19 24 -19 44 -6 12 8 13 12 2 19 -8 4 -12 10 -11 12 6
8 -34 59 -46 59 -7 0 -15 5 -17 11 -2 7 -12 -1 -22 -16z"/>
<path d="M7530 9289 c0 -5 5 -7 10 -4 6 3 10 8 10 11 0 2 -4 4 -10 4 -5 0 -10
-5 -10 -11z"/>
<path d="M7060 9223 c0 -13 5 -23 10 -23 13 0 13 11 0 30 -8 12 -10 11 -10 -7z"/>
<path d="M7480 9224 c0 -8 5 -12 10 -9 6 4 8 11 5 16 -9 14 -15 11 -15 -7z"/>
<path d="M7341 9205 c-1 -5 -4 -37 -6 -70 -4 -45 -2 -56 6 -42 5 9 8 41 6 70
-2 28 -4 48 -6 42z"/>
<path d="M8758 9183 c7 -3 16 -2 19 1 4 3 -2 6 -13 5 -11 0 -14 -3 -6 -6z"/>
<path d="M7094 9125 c1 -28 11 -33 19 -11 3 8 0 20 -8 26 -10 8 -13 5 -11 -15z"/>
<path d="M8645 9140 c-3 -5 -2 -10 4 -10 5 0 13 5 16 10 3 6 2 10 -4 10 -5 0
-13 -4 -16 -10z"/>
<path d="M7010 9116 c0 -2 8 -10 18 -17 15 -13 16 -12 3 4 -13 16 -21 21 -21
13z"/>
<path d="M8613 9108 c-15 -20 -25 -38 -20 -38 3 0 12 11 21 25 17 26 16 35 -1
13z"/>
<path d="M7090 9000 c12 -16 24 -30 26 -30 3 0 -4 14 -16 30 -12 17 -24 30
-26 30 -3 0 4 -13 16 -30z"/>
<path d="M8368 9023 c7 -3 16 -2 19 1 4 3 -2 6 -13 5 -11 0 -14 -3 -6 -6z"/>
<path d="M6995 8980 c10 -11 20 -18 23 -15 7 6 -18 35 -31 35 -5 0 -2 -9 8
-20z"/>
<path d="M10340 8980 c0 -5 5 -10 11 -10 5 0 7 5 4 10 -3 6 -8 10 -11 10 -2 0
-4 -4 -4 -10z"/>
<path d="M7041 8927 c6 -10 13 -16 16 -13 3 3 12 -2 20 -12 9 -10 7 -4 -2 14
-10 17 -23 31 -31 31 -10 0 -10 -5 -3 -20z"/>
<path d="M4514 8884 c-18 -14 -18 -15 4 -4 12 6 22 13 22 15 0 8 -5 6 -26 -11z"/>
<path d="M7170 8892 c0 -5 7 -17 16 -28 14 -17 15 -17 10 -1 -3 10 -6 23 -6
28 0 5 -4 9 -10 9 -5 0 -10 -4 -10 -8z"/>
<path d="M7090 8861 c0 -11 5 -23 10 -26 6 -3 10 3 10 14 0 11 -4 23 -10 26
-5 3 -10 -3 -10 -14z"/>
<path d="M4205 8860 c-3 -5 -1 -10 4 -10 6 0 11 5 11 10 0 6 -2 10 -4 10 -3 0
-8 -4 -11 -10z"/>
<path d="M7535 8830 c-3 -5 -2 -10 4 -10 5 0 13 5 16 10 3 6 2 10 -4 10 -5 0
-13 -4 -16 -10z"/>
<path d="M8053 8793 c-15 -5 -18 -33 -4 -33 5 0 11 9 14 20 3 11 4 20 4 19 -1
0 -8 -3 -14 -6z"/>
<path d="M7126 8772 c-3 -6 -1 -14 5 -17 15 -10 25 3 12 16 -7 7 -13 7 -17 1z"/>
<path d="M8012 8748 c-15 -15 -16 -48 -1 -48 8 0 8 -5 -1 -15 -10 -12 -10 -15
2 -15 8 0 14 10 14 24 0 14 -4 22 -8 20 -4 -3 -8 -1 -8 5 0 15 13 19 35 10 11
-4 14 -8 8 -8 -8 -1 -13 -14 -13 -32 0 -18 4 -28 10 -24 6 4 8 16 4 27 -5 16
-3 20 10 15 27 -11 26 9 -2 24 -15 8 -30 17 -33 21 -3 5 -10 3 -17 -4z"/>
<path d="M7450 8690 c0 -5 5 -10 10 -10 6 0 10 5 10 10 0 6 -4 10 -10 10 -5 0
-10 -4 -10 -10z"/>
<path d="M8006 8645 c4 -8 10 -12 15 -9 14 8 10 24 -6 24 -9 0 -12 -6 -9 -15z"/>
<path d="M7935 8590 c-3 -5 -1 -10 4 -10 6 0 11 5 11 10 0 6 -2 10 -4 10 -3 0
-8 -4 -11 -10z"/>
<path d="M8976 8591 c-3 -5 -36 -14 -73 -21 -109 -19 -204 -58 -295 -119 -66
-44 -99 -87 -150 -191 -17 -37 -21 -62 -21 -138 0 -89 2 -96 44 -180 37 -72
62 -105 150 -194 59 -60 115 -108 124 -108 9 0 31 -11 47 -25 16 -14 34 -23
39 -19 5 3 23 -6 40 -20 17 -14 38 -26 48 -26 9 0 21 -4 27 -9 18 -18 132 -52
259 -77 115 -23 147 -26 280 -21 102 3 164 10 194 21 24 9 52 16 63 16 27 0
183 74 218 104 16 13 55 54 88 90 47 54 61 78 71 121 7 30 17 55 22 55 14 0
11 109 -5 138 -8 15 -22 50 -32 77 -19 55 -65 128 -92 145 -16 11 -16 11 1 6
12 -4 17 -2 15 6 -8 23 -33 14 -36 -12 -4 -29 -101 -132 -119 -126 -6 3 -24
-5 -39 -17 -25 -19 -39 -21 -166 -21 -116 0 -140 2 -150 16 -7 9 -28 19 -46
21 -111 17 -252 184 -237 281 9 59 40 107 95 146 27 19 49 38 50 42 0 4 -23
10 -51 14 -28 4 -53 13 -56 20 -4 11 -38 14 -153 14 -82 0 -151 -4 -154 -9z"/>
<path d="M4025 8570 c-10 -11 -13 -20 -8 -20 6 0 16 7 23 15 11 14 14 13 25
-1 7 -11 17 -14 25 -9 9 6 6 11 -11 21 -32 17 -33 17 -54 -6z"/>
<path d="M4027 8543 c-14 -14 -6 -33 14 -33 13 0 18 -4 13 -12 -5 -10 -4 -10
5 -2 10 9 10 16 -1 33 -14 22 -20 25 -31 14z"/>
<path d="M7843 8535 c-3 -9 -3 -19 1 -22 4 -4 -4 -13 -16 -20 -18 -10 -20 -12
-5 -13 9 0 17 -5 17 -12 0 -6 3 -8 7 -5 3 4 12 -1 19 -11 8 -10 13 -12 14 -4
0 14 20 17 20 3 0 -15 -33 -22 -42 -9 -6 10 -8 9 -8 -4 0 -9 4 -19 9 -22 4 -3
6 -16 4 -30 -4 -18 0 -26 16 -31 13 -4 19 -11 15 -18 -4 -7 -3 -8 2 -4 13 13
11 30 -4 43 -12 8 -11 12 2 23 9 8 16 19 16 26 0 8 6 16 13 18 9 4 9 8 -1 15
-11 7 -11 10 2 15 9 4 16 11 16 17 0 6 -5 8 -11 4 -8 -4 -8 0 0 15 11 20 10
20 -15 9 -21 -10 -28 -10 -31 -1 -3 7 -11 9 -19 6 -10 -4 -12 0 -8 11 3 9 3
16 0 16 -4 0 -9 -7 -13 -15z"/>
<path d="M5060 8466 c-14 -7 -47 -17 -74 -21 -65 -9 -184 -66 -250 -120 -102
-84 -156 -185 -156 -295 0 -77 19 -169 42 -202 10 -14 18 -33 18 -41 0 -20
228 -248 266 -266 16 -7 36 -17 44 -22 108 -66 278 -127 435 -156 373 -68 761
60 867 286 28 60 31 74 31 173 0 59 -5 113 -10 120 -6 7 -16 29 -22 49 -6 20
-25 54 -42 77 -40 54 -66 55 -98 3 -13 -22 -34 -44 -47 -50 -13 -6 -24 -15
-24 -20 0 -4 -18 -11 -39 -15 -22 -3 -41 -12 -43 -18 -3 -9 -42 -14 -133 -16
-106 -3 -130 -1 -137 11 -4 9 -26 18 -48 22 -22 4 -40 11 -40 15 0 9 -39 25
-51 22 -4 0 -36 28 -71 63 -55 54 -66 71 -77 118 -19 87 -7 146 41 196 22 22
46 41 54 41 15 0 39 39 29 48 -4 4 -12 -1 -20 -11 -12 -16 -13 -16 -18 3 -5
19 -13 20 -204 20 -145 -1 -205 -4 -223 -14z"/>
<path d="M10651 8471 c-7 -5 -9 -11 -5 -14 5 -3 15 1 22 9 14 16 5 18 -17 5z"/>
<path d="M3974 8407 c1 -19 -7 -34 -24 -47 -14 -11 -19 -20 -12 -20 7 0 10 -5
7 -11 -4 -6 -13 -8 -21 -5 -9 3 -11 0 -7 -12 12 -31 37 -41 46 -18 4 11 1 13
-10 9 -11 -4 -14 -2 -9 5 4 7 16 12 26 12 16 0 18 5 14 30 -4 19 -2 30 5 30 6
0 11 5 11 11 0 5 -4 8 -9 4 -5 -3 -12 5 -14 17 -3 17 -4 15 -3 -5z"/>
<path d="M10696 8424 c-5 -14 -4 -15 9 -4 17 14 19 20 6 20 -5 0 -12 -7 -15
-16z"/>
<path d="M10655 8410 c-3 -6 1 -7 9 -4 18 7 21 14 7 14 -6 0 -13 -4 -16 -10z"/>
<path d="M3885 8380 c-3 -5 -1 -10 4 -10 6 0 11 5 11 10 0 6 -2 10 -4 10 -3 0
-8 -4 -11 -10z"/>
<path d="M6835 8340 c3 -5 8 -10 11 -10 2 0 4 5 4 10 0 6 -5 10 -11 10 -5 0
-7 -4 -4 -10z"/>
<path d="M10754 8242 c6 -9 1 -11 -17 -7 -28 8 -43 -16 -27 -44 9 -18 4 -31
-11 -31 -4 0 -10 8 -12 18 -4 16 -5 16 -6 -1 -1 -22 25 -33 42 -18 8 6 24 12
38 15 19 3 23 9 21 27 -1 13 -10 31 -19 39 -9 9 -13 10 -9 2z m16 -34 c0 -16
-3 -19 -11 -11 -6 6 -8 16 -5 22 11 17 16 13 16 -11z m-40 8 c0 -3 -4 -8 -10
-11 -5 -3 -10 -1 -10 4 0 6 5 11 10 11 6 0 10 -2 10 -4z"/>
<path d="M10633 8174 c-7 -19 21 -51 32 -35 4 7 1 10 -7 9 -8 -2 -13 6 -12 20
1 26 -4 28 -13 6z"/>
<path d="M6896 8165 c-3 -9 -2 -14 3 -11 5 3 12 -1 15 -10 9 -22 8 -23 -15
-17 -14 4 -25 0 -31 -11 -5 -9 -13 -14 -17 -12 -9 6 -7 -30 3 -66 5 -16 12
-25 18 -22 5 4 5 10 -1 18 -6 7 -6 17 -1 26 8 13 10 12 10 -2 0 -11 5 -15 15
-12 19 8 21 -32 3 -39 -10 -4 -10 -8 1 -15 7 -5 10 -15 7 -21 -4 -6 -3 -11 2
-11 6 0 12 7 16 15 3 8 0 15 -6 15 -9 0 -9 3 0 12 8 8 15 8 24 0 10 -8 14 -4
15 16 1 15 0 37 -2 50 -5 19 -9 21 -25 12 -30 -16 -31 -12 -3 16 l25 25 -23
27 c-13 15 -25 28 -25 30 -1 2 -4 -4 -8 -13z"/>
<path d="M10601 8154 c0 -11 3 -14 6 -6 3 7 2 16 -1 19 -3 4 -6 -2 -5 -13z"/>
<path d="M10743 8144 c0 -8 6 -14 14 -14 7 0 13 4 13 9 0 5 -6 11 -13 14 -8 3
-14 -1 -14 -9z"/>
<path d="M10715 8110 c3 -5 8 -10 11 -10 2 0 4 5 4 10 0 6 -5 10 -11 10 -5 0
-7 -4 -4 -10z"/>
<path d="M6867 7993 c-12 -11 -7 -53 6 -53 8 0 7 -4 -3 -11 -13 -9 -13 -10 0
-6 8 2 13 11 11 18 -2 8 -3 24 -3 37 -1 24 -1 25 -11 15z"/>
<path d="M10692 7983 c2 -10 12 -19 23 -21 18 -3 19 -2 2 8 -9 6 -15 15 -12
21 4 5 1 9 -5 9 -6 0 -10 -8 -8 -17z"/>
<path d="M10696 7924 c-17 -12 -17 -14 -4 -14 9 0 20 5 23 11 11 17 2 18 -19
3z"/>
<path d="M10726 7924 c-9 -22 3 -32 14 -14 12 19 12 30 1 30 -5 0 -12 -7 -15
-16z"/>
<path d="M10690 7873 c0 -10 4 -14 8 -8 4 6 11 13 16 18 5 4 2 7 -7 7 -10 0
-17 -8 -17 -17z"/>
<path d="M10740 7881 c0 -6 4 -13 10 -16 6 -3 7 1 4 9 -7 18 -14 21 -14 7z"/>
<path d="M6840 7840 c0 -11 2 -20 4 -20 2 0 6 9 9 20 3 11 1 20 -4 20 -5 0 -9
-9 -9 -20z"/>
<path d="M4116 7465 c3 -7 15 -16 27 -19 16 -4 19 -8 9 -14 -10 -7 -10 -11 1
-21 22 -18 32 17 12 39 -20 23 -56 33 -49 15z"/>
<path d="M4318 7333 c7 -3 16 -2 19 1 4 3 -2 6 -13 5 -11 0 -14 -3 -6 -6z"/>
<path d="M4375 7280 c10 -11 22 -20 26 -20 5 0 1 9 -8 20 -10 11 -22 20 -27
20 -5 0 -1 -9 9 -20z"/>
<path d="M6525 7260 c-3 -5 -1 -10 4 -10 6 0 11 5 11 10 0 6 -2 10 -4 10 -3 0
-8 -4 -11 -10z"/>
<path d="M8220 7240 c0 -5 5 -10 11 -10 5 0 7 5 4 10 -3 6 -8 10 -11 10 -2 0
-4 -4 -4 -10z"/>
<path d="M4385 7210 c4 -6 11 -8 16 -5 14 9 11 15 -7 15 -8 0 -12 -5 -9 -10z"/>
<path d="M4380 7182 c0 -5 9 -12 21 -15 13 -3 19 -1 16 6 -5 15 -37 22 -37 9z"/>
<path d="M8305 7180 c-3 -5 -1 -10 4 -10 6 0 11 5 11 10 0 6 -2 10 -4 10 -3 0
-8 -4 -11 -10z"/>
<path d="M10125 7140 c-3 -5 -2 -10 4 -10 5 0 13 5 16 10 3 6 2 10 -4 10 -5 0
-13 -4 -16 -10z"/>
<path d="M10186 7111 c-6 -10 24 -25 32 -16 3 3 0 5 -7 5 -7 0 -9 5 -6 10 3 6
2 10 -4 10 -5 0 -12 -4 -15 -9z"/>
<path d="M4670 7106 c0 -2 8 -10 18 -17 15 -13 16 -12 3 4 -13 16 -21 21 -21
13z"/>
<path d="M6234 7065 c-18 -13 -18 -14 4 -8 12 3 25 9 28 14 8 14 -10 11 -32
-6z"/>
<path d="M4740 7060 c0 -5 7 -10 16 -10 8 0 12 5 9 10 -3 6 -10 10 -16 10 -5
0 -9 -4 -9 -10z"/>
<path d="M8508 7063 c7 -3 16 -2 19 1 4 3 -2 6 -13 5 -11 0 -14 -3 -6 -6z"/>
<path d="M6160 7030 c-8 -5 -10 -10 -5 -10 6 0 17 5 25 10 8 5 11 10 5 10 -5
0 -17 -5 -25 -10z"/>
<path d="M9818 6993 c-16 -2 -28 -9 -28 -14 0 -10 32 -4 60 12 16 9 14 9 -32
2z"/>
<path d="M4980 6956 c0 -2 7 -7 16 -10 8 -3 12 -2 9 4 -6 10 -25 14 -25 6z"/>
<path d="M5948 6953 c6 -2 18 -2 25 0 6 3 1 5 -13 5 -14 0 -19 -2 -12 -5z"/>
<path d="M9684 6948 c-7 -10 15 -9 41 2 17 7 16 8 -8 7 -16 -1 -31 -5 -33 -9z"/>
<path d="M7240 6923 c-14 -3 -29 -8 -35 -13 -5 -4 -37 -13 -70 -20 -77 -15
-207 -60 -220 -75 -5 -6 -25 -12 -44 -12 -21 0 -39 -6 -47 -18 -8 -10 -12 -20
-11 -21 2 -2 28 1 58 6 136 25 530 49 649 39 52 -4 168 -8 258 -8 138 -1 162
1 162 14 0 8 -1 15 -2 15 -28 0 -173 32 -178 39 -3 6 -26 13 -50 16 -25 4 -63
14 -85 22 -29 12 -83 17 -200 19 -88 1 -171 0 -185 -3z"/>
<path d="M9008 6913 c7 -3 16 -2 19 1 4 3 -2 6 -13 5 -11 0 -14 -3 -6 -6z"/>
<path d="M7986 6801 c-9 -14 10 -28 46 -34 35 -5 36 -5 19 12 -20 20 -59 33
-65 22z"/>
<path d="M4788 6572 c-47 -31 -51 -67 -11 -102 53 -46 219 -65 400 -45 144 16
146 17 301 52 61 14 112 28 112 33 0 4 -93 10 -207 13 -115 3 -228 11 -253 17
-25 6 -81 17 -124 25 -43 8 -84 19 -89 24 -20 20 -90 10 -129 -17z"/>
<path d="M6968 6586 c-8 -7 -41 -16 -73 -21 -33 -4 -64 -10 -70 -15 -5 -4 -48
-13 -95 -21 -47 -7 -94 -18 -105 -25 -11 -6 -44 -14 -74 -18 -30 -3 -61 -12
-71 -21 -9 -8 -26 -15 -38 -15 -12 0 -30 -9 -39 -20 -10 -11 -25 -20 -33 -20
-50 0 -156 -119 -167 -187 -6 -35 -6 -36 22 -29 16 4 47 22 69 39 111 89 254
153 378 171 34 4 39 1 56 -27 13 -20 22 -60 26 -110 7 -87 32 -157 74 -200 29
-31 99 -67 129 -67 30 0 98 55 116 94 10 20 25 51 33 69 23 46 15 287 -9 332
-9 17 -17 34 -17 38 0 4 -10 21 -22 37 -24 33 -66 40 -90 16z"/>
<path d="M7494 6568 c-56 -85 -58 -94 -59 -258 l0 -155 30 -40 c17 -22 33 -41
38 -43 4 -2 7 -8 7 -13 0 -6 -6 -7 -12 -3 -7 4 -4 -2 6 -14 20 -23 32 -30 21
-12 -11 17 8 11 31 -11 18 -17 30 -20 58 -15 20 4 36 11 36 16 0 6 8 10 18 10
28 0 78 59 105 125 17 40 27 90 32 153 l7 92 54 0 c86 0 226 -54 321 -124 151
-111 201 -114 148 -8 -14 29 -42 64 -61 79 -20 16 -45 36 -56 46 -12 9 -26 17
-31 17 -6 0 -18 6 -26 14 -18 16 -118 54 -171 65 -19 4 -51 13 -70 19 -45 14
-220 50 -285 59 -27 3 -52 9 -55 13 -3 4 -18 10 -35 14 -26 5 -33 2 -51 -26z"/>
<path d="M9772 6588 c-6 -6 -46 -17 -89 -24 -43 -7 -121 -20 -173 -28 -57 -10
-158 -16 -250 -16 -85 0 -162 -5 -170 -10 -12 -8 -11 -10 6 -10 12 0 66 -11
120 -25 216 -55 424 -71 579 -45 60 10 76 18 114 54 25 22 39 33 32 24 -8 -11
-9 -18 -3 -18 39 0 20 58 -24 76 -19 8 -34 19 -34 24 0 14 -94 12 -108 -2z"/>
<path d="M6550 6039 c16 -54 32 -63 50 -30 8 16 4 22 -24 39 l-34 20 8 -29z"/>
<path d="M8004 6041 c3 -4 -7 -12 -22 -19 -15 -6 -51 -34 -80 -61 -29 -28 -59
-48 -66 -45 -19 7 -32 -16 -15 -27 21 -13 34 -11 59 11 13 11 29 20 36 20 17
0 78 53 104 90 20 28 20 28 0 33 -11 3 -18 2 -16 -2z"/>
<path d="M6610 5995 c-10 -12 -10 -18 0 -30 16 -19 30 -19 55 1 20 15 20 15 1
30 -25 18 -40 18 -56 -1z"/>
<path d="M6685 5957 c-25 -19 -11 -37 30 -37 64 0 83 18 40 38 -33 15 -47 15
-70 -1z"/>
<path d="M6827 5914 c-12 -13 -8 -20 14 -21 11 -1 19 3 17 9 -5 15 -22 21 -31
12z"/>
<path d="M7390 5490 c-13 -9 -13 -10 0 -10 13 -1 13 -2 -1 -13 -8 -7 -18 -20
-22 -29 -3 -10 -12 -18 -19 -18 -9 0 -9 3 2 10 8 5 12 12 8 15 -3 3 -13 -2
-23 -12 -17 -16 -17 -18 4 -27 12 -5 20 -15 17 -21 -2 -7 6 -18 19 -25 14 -7
21 -18 18 -24 -4 -6 3 -3 14 7 14 12 23 15 28 8 4 -8 11 -6 22 4 8 9 23 13 33
10 19 -6 34 9 35 35 0 8 6 14 13 13 6 -2 12 2 12 7 0 6 -5 10 -11 10 -6 0 -9
6 -6 13 3 8 -7 18 -24 26 -16 7 -27 16 -25 19 7 11 -48 8 -56 -3 -6 -7 -11 -6
-16 2 -5 8 -13 9 -22 3z"/>
<path d="M6607 5384 c-8 -8 1 -24 14 -24 5 0 9 7 9 15 0 15 -12 20 -23 9z"/>
<path d="M8165 5360 c-3 -5 -1 -10 4 -10 6 0 11 5 11 10 0 6 -2 10 -4 10 -3 0
-8 -4 -11 -10z"/>
<path d="M8164 5318 c-5 -8 -2 -9 10 -5 14 5 17 3 12 -8 -3 -8 -1 -15 5 -15 6
0 9 -7 5 -15 -10 -26 3 -16 19 15 8 16 15 31 15 35 0 10 -59 5 -66 -7z"/>
<path d="M5968 5293 c7 -3 16 -2 19 1 4 3 -2 6 -13 5 -11 0 -14 -3 -6 -6z"/>
<path d="M8760 5227 c0 -49 101 -90 124 -51 13 23 16 44 8 42 -4 -1 -20 4 -35
10 -34 14 -47 15 -47 3 0 -10 -19 -9 -37 2 -8 5 -13 3 -13 -6z"/>
<path d="M5918 5223 c7 -3 16 -2 19 1 4 3 -2 6 -13 5 -11 0 -14 -3 -6 -6z"/>
<path d="M5403 5148 c19 -10 23 -38 6 -38 -22 0 2 -18 30 -22 22 -3 31 0 34
13 3 10 2 18 -2 17 -19 -2 -24 3 -11 12 12 8 10 10 -8 10 -13 0 -21 4 -18 9 3
5 -6 9 -21 9 -21 0 -23 -2 -10 -10z"/>
<path d="M8823 5135 c0 -10 10 -15 26 -14 14 0 20 3 13 6 -6 2 -10 9 -6 14 3
5 -3 9 -14 9 -10 0 -19 -7 -19 -15z"/>
<path d="M9304 5115 c-8 -19 2 -45 16 -45 12 0 53 40 47 46 -14 14 -58 13 -63
-1z"/>
<path d="M9307 5063 c-20 -2 -35 -8 -32 -13 6 -11 65 -2 80 11 6 6 6 8 0 7 -6
-1 -27 -3 -48 -5z"/>
<path d="M7684 5040 c-49 -11 -100 -47 -148 -103 -49 -59 -116 -179 -135 -247
-7 -25 -18 -56 -23 -70 l-10 -25 -19 23 c-10 13 -21 40 -24 60 -9 55 -56 171
-90 222 -16 24 -50 58 -75 75 -41 27 -54 30 -145 33 l-100 4 -53 -42 c-83 -67
-141 -160 -200 -324 -15 -44 -33 -81 -39 -83 -7 -3 -15 12 -19 34 -7 41 -32
111 -65 181 -25 55 -102 138 -151 163 -55 28 -143 26 -205 -5 -68 -35 -137
-142 -198 -311 -10 -27 -20 -43 -23 -35 -2 8 -11 20 -19 27 -9 7 -19 33 -24
59 -19 102 -121 256 -189 284 -50 21 -140 9 -183 -24 -40 -31 -129 -166 -148
-225 -7 -20 -17 -44 -24 -54 -12 -17 -14 -16 -34 9 -11 15 -21 37 -21 50 0 12
-19 59 -42 104 -38 73 -48 84 -97 110 -54 30 -141 42 -141 20 0 -5 -12 -13
-27 -16 -59 -14 -126 -100 -137 -176 -4 -25 -13 -48 -20 -51 -17 -7 -21 -97
-21 -508 0 -292 2 -329 17 -345 9 -11 20 -32 24 -48 4 -16 30 -53 58 -82 45
-45 58 -53 103 -59 42 -5 60 -3 100 16 26 12 52 21 58 20 5 -2 7 1 3 5 -4 4
15 35 42 69 28 35 50 72 50 84 0 12 4 21 9 21 13 0 25 39 23 73 -1 15 2 27 7
27 14 0 31 -34 31 -63 0 -13 7 -37 15 -53 8 -16 17 -53 19 -82 3 -28 15 -68
26 -89 11 -21 20 -45 20 -54 0 -8 30 -48 68 -88 64 -70 69 -74 119 -78 86 -9
140 4 184 44 21 19 39 44 39 54 0 10 5 21 10 24 6 3 15 26 21 50 6 25 15 42
19 40 14 -8 21 11 29 78 l7 62 26 -55 c15 -30 32 -75 38 -100 23 -83 60 -177
91 -224 16 -26 24 -44 17 -40 -7 4 0 -7 16 -24 30 -33 43 -41 30 -21 -4 7 11
0 32 -15 40 -27 101 -34 173 -20 42 9 103 72 136 142 15 31 36 74 46 95 11 21
19 44 19 53 0 24 50 115 60 109 5 -3 12 -27 15 -53 3 -26 11 -58 17 -72 6 -14
16 -53 24 -88 7 -34 20 -72 28 -84 9 -12 16 -30 16 -40 0 -10 3 -18 8 -18 10
-1 43 -48 46 -66 3 -21 57 -73 70 -68 7 3 20 -4 30 -15 24 -27 110 -37 177
-21 59 14 130 72 154 124 8 17 19 38 25 46 22 34 49 108 55 153 3 26 10 45 15
42 9 -6 30 80 30 128 1 29 2 30 14 14 8 -10 28 -64 46 -120 18 -56 43 -122 55
-147 31 -61 107 -145 162 -177 40 -23 52 -25 122 -21 66 4 84 9 122 35 65 45
126 119 145 177 9 28 23 60 30 71 8 11 14 29 14 40 0 34 49 130 61 118 11 -11
17 -33 18 -66 1 -10 5 -15 11 -12 5 3 15 -15 21 -40 6 -25 15 -45 20 -45 5 0
6 -6 3 -14 -7 -19 88 -120 141 -149 60 -34 115 -42 157 -24 18 8 45 19 60 25
47 19 137 164 152 245 4 20 11 37 16 37 13 0 30 67 30 119 0 44 0 44 21 25 11
-10 36 -51 54 -91 19 -40 44 -88 56 -105 13 -17 17 -28 9 -23 -8 5 -3 -6 10
-24 12 -18 38 -40 56 -47 46 -19 168 -19 188 1 8 8 21 15 28 15 20 0 73 58 92
100 9 19 20 42 24 50 15 25 43 113 48 148 3 19 10 47 17 64 l12 30 28 -22 c15
-12 25 -25 22 -30 -8 -12 72 -108 108 -131 112 -68 276 58 303 231 4 25 13 51
21 58 21 21 22 483 1 567 -5 22 -16 69 -24 105 -16 69 -40 114 -95 172 -38 40
-91 54 -161 43 -57 -9 -120 -75 -172 -178 -22 -43 -44 -76 -50 -74 -6 2 -22
37 -37 79 -33 96 -73 169 -116 213 -33 34 -37 35 -109 35 -85 0 -127 -15 -165
-56 -24 -27 -89 -128 -89 -139 0 -2 -13 -34 -30 -70 -16 -36 -30 -70 -30 -75
0 -25 -19 -6 -28 28 -28 95 -64 188 -85 216 -12 17 -28 43 -34 58 -34 78 -173
107 -270 57 -59 -31 -154 -141 -172 -199 -7 -23 -21 -56 -32 -73 -10 -18 -19
-49 -19 -69 0 -72 -32 -41 -65 64 -42 131 -56 162 -89 203 -18 22 -35 48 -39
58 -4 9 -17 22 -29 28 -13 6 -39 19 -58 30 -36 19 -90 23 -146 9z m185 -165
c26 -25 51 -42 55 -38 4 4 4 -1 0 -11 -5 -12 -4 -17 3 -13 19 12 78 -139 74
-186 -1 -16 4 -36 12 -45 12 -13 17 -58 23 -193 l7 -176 -129 -6 c-71 -4 -215
-7 -320 -7 -174 0 -192 2 -196 18 -9 35 12 298 27 341 8 24 15 52 15 63 0 10
8 38 19 61 10 23 27 62 38 88 26 59 79 119 107 119 11 1 32 7 46 15 15 9 54
14 98 15 73 0 73 0 121 -45z m-785 16 c16 -11 34 -17 41 -15 16 7 77 -63 102
-116 48 -105 53 -120 53 -162 0 -24 6 -53 14 -64 11 -15 15 -61 17 -174 l3
-155 -320 0 -319 0 -3 40 c-6 64 18 286 34 316 7 15 11 35 8 43 -3 9 -2 16 2
16 5 0 10 13 11 29 3 45 66 161 109 201 20 19 34 29 30 23 -8 -14 6 -18 18 -5
14 14 101 40 136 41 19 1 48 -8 64 -18z m1456 -43 c20 -18 46 -46 58 -63 29
-42 80 -187 79 -227 -1 -49 13 -109 24 -103 5 4 9 -31 9 -88 0 -78 -3 -96 -16
-101 -26 -10 -232 -26 -341 -26 -56 0 -103 -4 -105 -9 -1 -5 -27 -12 -57 -16
-40 -5 -56 -3 -62 7 -18 28 -6 344 12 332 4 -2 11 12 14 33 12 72 16 84 34 99
10 9 16 24 14 34 -6 22 56 93 112 128 82 52 165 52 225 0z m-2856 7 c11 -8 27
-15 37 -15 23 0 134 -121 119 -130 -8 -5 -8 -11 3 -21 24 -25 41 -63 39 -92
-1 -15 4 -40 13 -57 10 -19 17 -74 22 -161 l6 -132 -127 5 c-71 3 -131 9 -134
15 -4 5 -58 13 -121 16 -91 5 -116 10 -128 24 -20 25 -12 235 11 278 9 17 16
38 16 48 0 30 58 142 89 171 15 15 50 35 77 45 61 24 55 23 78 6z m3417 1 c19
-8 46 -27 61 -43 33 -34 78 -129 78 -163 0 -14 7 -38 16 -55 11 -22 16 -62 17
-145 l2 -115 -70 -8 c-38 -4 -92 -12 -120 -18 -79 -15 -263 -32 -289 -25 -13
3 -26 15 -29 26 -7 28 4 131 14 125 4 -3 10 30 14 72 4 43 11 94 17 113 25 85
82 185 98 175 4 -3 10 1 13 9 6 15 103 65 128 66 9 0 32 -6 50 -14z m-3905
-70 c51 -51 98 -122 90 -135 -4 -6 -4 -22 0 -36 5 -20 9 -23 15 -13 6 8 9 -1
9 -28 0 -22 3 -89 7 -148 l6 -107 -134 7 c-86 4 -141 12 -154 20 -11 8 -44 14
-75 14 -85 0 -84 -1 -76 143 9 176 42 258 120 300 87 46 131 42 192 -17z
m1171 43 c34 -12 129 -103 150 -143 9 -17 10 -25 3 -21 -15 9 8 -37 23 -46 8
-6 14 -40 16 -91 1 -9 8 -24 17 -33 13 -12 17 -44 20 -150 l5 -135 -240 0
c-203 0 -240 2 -245 15 -4 11 -20 15 -54 15 -29 0 -54 6 -61 13 -15 19 3 254
24 293 8 16 15 38 15 49 0 25 40 111 74 161 46 68 171 104 253 73z m3327 -103
c49 -50 63 -71 65 -97 2 -46 19 -112 20 -81 1 12 6 22 12 22 9 0 10 -22 5 -77
-3 -42 -8 -79 -11 -81 -3 -3 -42 -8 -87 -12 -46 -3 -92 -11 -104 -18 -11 -6
-68 -14 -127 -18 l-107 -6 0 68 c0 79 37 218 70 264 28 40 98 98 124 103 49
11 78 -3 140 -67z m70 -388 c-5 -8 -2 -9 9 -5 15 6 17 -7 17 -126 0 -102 -3
-138 -15 -153 -8 -10 -15 -29 -15 -42 -1 -63 -96 -184 -158 -201 -36 -11 -102
-3 -102 11 0 5 -11 20 -24 35 -25 27 -70 157 -81 233 -3 24 -10 47 -15 50 -6
3 -11 35 -12 69 l-3 64 62 17 c34 10 115 23 180 29 65 6 119 15 121 21 2 5 13
10 23 10 13 0 18 -4 13 -12z m-4808 -37 c-8 -12 43 -19 138 -21 86 -1 126 -7
126 -21 0 -4 23 -11 50 -15 57 -8 55 -1 44 -137 -4 -45 -11 -75 -17 -74 -6 1
-14 -20 -18 -48 -5 -27 -15 -54 -23 -60 -8 -6 -18 -23 -21 -38 -4 -14 -23 -43
-42 -64 -33 -37 -36 -29 -4 12 16 20 -44 -28 -66 -53 -14 -17 -89 -12 -85 6 1
6 -4 12 -12 12 -7 0 -19 7 -26 15 -7 9 -15 13 -18 11 -8 -8 -62 65 -69 92 -3
14 -12 37 -19 51 -10 18 -14 71 -14 178 0 149 0 152 23 156 40 8 58 7 53 -2z
m4338 -47 c10 -25 6 -252 -4 -229 -6 13 -9 -11 -9 -71 -1 -62 -7 -111 -21
-154 -29 -90 -86 -182 -100 -160 -4 6 -16 1 -30 -12 -21 -19 -36 -23 -93 -23
l-70 0 -53 59 c-36 39 -58 75 -69 110 -9 28 -20 59 -25 68 -6 10 -15 61 -21
115 -6 53 -15 105 -20 114 -5 10 -9 42 -9 72 l0 55 68 15 c37 9 123 21 192 26
69 6 139 15 155 20 50 15 102 13 109 -5z m-3722 -36 c3 -9 46 -13 147 -14 108
-1 146 -5 152 -15 8 -12 10 -12 18 0 7 11 11 10 20 -7 13 -24 3 -294 -10 -286
-10 6 -17 -24 -23 -94 -2 -29 -11 -61 -19 -70 -8 -9 -17 -30 -21 -47 -8 -34
-54 -87 -68 -78 -6 3 -23 -4 -39 -16 -38 -28 -58 -27 -129 9 -60 30 -130 105
-130 139 0 10 -5 22 -12 29 -21 21 -57 384 -44 438 6 23 11 24 80 24 49 0 76
-4 78 -12z m3138 -133 c0 -89 -3 -117 -14 -121 -9 -4 -16 -35 -21 -105 -12
-175 -79 -339 -159 -388 -43 -27 -149 -29 -186 -5 -94 63 -167 173 -176 266
-2 25 -11 59 -19 75 -11 21 -15 66 -15 184 0 178 -5 169 88 169 31 0 98 5 147
11 88 11 244 24 318 27 l37 2 0 -115z m-2375 70 c116 -3 220 -8 233 -11 20 -6
22 -12 22 -75 0 -53 -4 -71 -15 -75 -10 -4 -15 -20 -15 -48 -1 -22 -7 -70 -15
-106 -9 -36 -20 -89 -25 -119 -5 -29 -14 -59 -20 -66 -6 -7 -17 -35 -25 -63
-9 -30 -33 -71 -57 -99 l-41 -48 -78 -1 -79 -2 -58 63 c-64 68 -114 170 -132
268 -6 28 -12 61 -14 72 -8 43 -18 304 -12 314 4 6 29 9 64 6 31 -2 152 -7
267 -10z m1723 -32 c7 -16 12 -68 12 -126 0 -82 -2 -98 -14 -88 -11 9 -14 -5
-19 -77 -9 -118 -31 -215 -64 -278 -34 -63 -107 -144 -135 -149 -12 -3 -29
-12 -39 -21 -25 -23 -143 -23 -192 1 -20 9 -53 35 -73 57 -41 45 -93 149 -99
197 -2 17 -9 47 -15 66 -13 38 -28 292 -22 366 l4 46 56 6 c32 3 111 6 177 7
66 1 154 5 195 9 41 3 107 7 145 8 67 3 71 2 83 -24z m-985 -3 l240 0 -7 -117
c-3 -64 -10 -119 -15 -123 -4 -3 -11 -43 -15 -89 -8 -102 -39 -228 -72 -296
-33 -68 -109 -154 -152 -172 -31 -13 -59 -12 -116 4 -13 4 -16 2 -10 -8 4 -7
-6 -3 -23 9 -37 27 -143 140 -143 153 0 5 -10 23 -22 40 -13 17 -23 43 -24 58
-1 15 -8 43 -17 62 -8 19 -18 76 -21 127 -3 51 -10 102 -16 112 -5 10 -10 71
-10 136 l0 117 92 -7 c50 -3 199 -6 331 -6z"/>
<path d="M10322 4173 c-10 -4 -11 -26 -6 -96 7 -99 20 -140 35 -116 10 16 11
92 3 167 -7 52 -8 55 -32 45z"/>
<path d="M4396 4027 c-14 -13 -33 -47 -42 -76 -15 -44 -19 -49 -33 -38 -14 11
-14 10 -2 -5 7 -10 17 -15 22 -12 5 3 9 1 9 -5 0 -16 69 -25 97 -12 72 33 91
85 49 133 -35 40 -68 45 -100 15z"/>
<path d="M10147 4019 c-41 -48 -37 -89 13 -124 32 -22 46 -26 73 -21 19 4 42
15 52 26 9 10 23 16 31 13 21 -8 17 15 -5 26 -10 6 -24 24 -31 41 -12 30 -65
70 -91 70 -8 0 -27 -14 -42 -31z"/>
<path d="M5266 3531 c-17 -18 -24 -31 -17 -35 6 -4 11 -1 11 6 0 10 3 9 11 -2
9 -12 10 -11 4 5 -4 13 1 25 17 37 13 10 18 18 12 18 -5 0 -23 -13 -38 -29z"/>
<path d="M5295 3500 c-3 -5 -2 -10 4 -10 5 0 13 5 16 10 3 6 2 10 -4 10 -5 0
-13 -4 -16 -10z"/>
<path d="M9482 3498 c5 -15 28 -18 29 -3 0 6 -7 12 -17 13 -10 3 -15 -1 -12
-10z"/>
<path d="M9402 3476 c-3 -6 -8 -26 -9 -44 -2 -33 -1 -33 30 -27 35 8 66 39 62
64 -2 18 -72 24 -83 7z"/>
<path d="M5960 3250 c19 -13 30 -13 30 0 0 6 -10 10 -22 10 -19 0 -20 -2 -8
-10z"/>
<path d="M8894 3215 c21 -16 32 -13 21 4 -3 6 -14 11 -23 11 -15 -1 -15 -2 2
-15z"/>
<path d="M8847 3203 c-4 -3 -7 -16 -7 -29 0 -16 -9 -25 -32 -33 -17 -6 -29
-13 -26 -16 8 -8 68 7 63 16 -3 4 6 19 19 32 24 24 24 37 1 37 -6 0 -15 -3
-18 -7z"/>
<path d="M8198 2933 c7 -3 16 -2 19 1 4 3 -2 6 -13 5 -11 0 -14 -3 -6 -6z"/>
<path d="M8223 2893 c9 -2 23 -2 30 0 6 3 -1 5 -18 5 -16 0 -22 -2 -12 -5z"/>
<path d="M7411 2857 c9 -7 18 -19 22 -27 3 -9 6 -10 6 -2 1 6 7 12 15 12 8 0
18 5 21 10 4 7 -2 9 -18 5 -14 -4 -28 -2 -31 4 -4 6 -13 11 -19 11 -7 -1 -6
-5 4 -13z"/>
<path d="M9073 2807 c-24 -12 -41 -27 -39 -33 3 -6 -1 -17 -7 -24 -9 -10 -8
-12 6 -7 14 5 19 0 24 -23 l5 -30 30 25 c16 14 33 25 36 25 4 0 12 11 18 25
11 22 10 24 -6 15 -10 -6 -27 -10 -37 -10 -15 0 -16 2 -3 10 12 8 13 11 1 19
-10 6 -6 11 15 19 16 6 22 11 14 11 -8 0 -34 -10 -57 -22z"/>
<path d="M8970 2740 c-8 -5 -12 -11 -9 -14 2 -3 11 -1 19 4 8 5 12 11 9 14 -2
3 -11 1 -19 -4z"/>
<path d="M5505 2730 c-3 -5 -1 -10 4 -10 6 0 11 5 11 10 0 6 -2 10 -4 10 -3 0
-8 -4 -11 -10z"/>
<path d="M5530 2710 c0 -5 5 -10 11 -10 5 0 7 5 4 10 -3 6 -8 10 -11 10 -2 0
-4 -4 -4 -10z"/>
<path d="M8929 2703 c-13 -16 -12 -17 4 -4 16 13 21 21 13 21 -2 0 -10 -8 -17
-17z"/>
<path d="M9030 2705 c0 -8 2 -15 4 -15 2 0 6 7 10 15 3 8 1 15 -4 15 -6 0 -10
-7 -10 -15z"/>
<path d="M8680 2541 c0 -5 8 -12 17 -15 15 -6 15 -8 3 -16 -13 -8 -13 -10 1
-10 12 0 16 8 15 25 -1 17 -7 25 -18 25 -10 0 -18 -4 -18 -9z"/>
<path d="M5973 2504 c16 -8 31 -13 35 -10 8 8 1 12 -33 20 l-30 6 28 -16z"/>
<path d="M8660 2509 c0 -5 5 -7 10 -4 6 3 10 8 10 11 0 2 -4 4 -10 4 -5 0 -10
-5 -10 -11z"/>
<path d="M8598 2503 c7 -3 16 -2 19 1 4 3 -2 6 -13 5 -11 0 -14 -3 -6 -6z"/>
<path d="M12570 9957 c0 -2 15 -16 33 -33 l32 -29 -29 33 c-28 30 -36 37 -36
29z"/>
</g>
</svg>
